%FSLAX23Y23*%
%MOIN*%
G04 EasyPC Gerber Version 16.0.6 Build 3249 *
%ADD10C,0.00100*%
%ADD12C,0.00500*%
X0Y0D02*
D02*
D10*
X4530Y5420D02*
X4528Y5418D01*
X4525Y5417*
X4521*
X4517Y5418*
X4516Y5420*
X4514Y5423*
Y5429*
X4516Y5432*
X4517Y5434*
X4521Y5435*
X4525*
X4528Y5434*
X4530Y5432*
X4539Y5435D02*
Y5421D01*
X4541Y5418*
X4544Y5417*
X4550*
X4553Y5418*
X4555Y5421*
Y5435*
X4572Y5417D02*
Y5435D01*
X4564D02*
X4580D01*
X4614Y5423D02*
Y5429D01*
X4616Y5432*
X4617Y5434*
X4621Y5435*
X4624*
X4627Y5434*
X4628Y5432*
X4630Y5429*
Y5423*
X4628Y5420*
X4627Y5418*
X4624Y5417*
X4621*
X4617Y5418*
X4616Y5420*
X4614Y5423*
X4639Y5435D02*
Y5421D01*
X4641Y5418*
X4644Y5417*
X4650*
X4653Y5418*
X4655Y5421*
Y5435*
X4672Y5417D02*
Y5435D01*
X4664D02*
X4680D01*
X4668Y4239D02*
X4666Y4237D01*
X4663Y4236*
X4658*
X4655Y4237*
X4654Y4239*
X4652Y4242*
Y4248*
X4654Y4251*
X4655Y4253*
X4658Y4254*
X4663*
X4666Y4253*
X4668Y4251*
X4677Y4254D02*
Y4240D01*
X4679Y4237*
X4682Y4236*
X4688*
X4691Y4237*
X4693Y4240*
Y4254*
X4710Y4236D02*
Y4254D01*
X4702D02*
X4718D01*
X4752Y4242D02*
Y4248D01*
X4754Y4251*
X4755Y4253*
X4758Y4254*
X4761*
X4765Y4253*
X4766Y4251*
X4768Y4248*
Y4242*
X4766Y4239*
X4765Y4237*
X4761Y4236*
X4758*
X4755Y4237*
X4754Y4239*
X4752Y4242*
X4777Y4254D02*
Y4240D01*
X4779Y4237*
X4782Y4236*
X4788*
X4791Y4237*
X4793Y4240*
Y4254*
X4810Y4236D02*
Y4254D01*
X4802D02*
X4818D01*
X4687Y5912D02*
X4686Y5910D01*
X4683Y5909*
X4678*
X4675Y5910*
X4673Y5912*
X4672Y5915*
Y5921*
X4673Y5924*
X4675Y5926*
X4678Y5928*
X4683*
X4686Y5926*
X4687Y5924*
X4697Y5928D02*
Y5913D01*
X4698Y5910*
X4701Y5909*
X4708*
X4711Y5910*
X4712Y5913*
Y5928*
X4730Y5909D02*
Y5928D01*
X4722D02*
X4737D01*
X4772Y5915D02*
Y5921D01*
X4773Y5924*
X4775Y5926*
X4778Y5928*
X4781*
X4784Y5926*
X4786Y5924*
X4787Y5921*
Y5915*
X4786Y5912*
X4784Y5910*
X4781Y5909*
X4778*
X4775Y5910*
X4773Y5912*
X4772Y5915*
X4797Y5928D02*
Y5913D01*
X4798Y5910*
X4801Y5909*
X4808*
X4811Y5910*
X4812Y5913*
Y5928*
X4830Y5909D02*
Y5928D01*
X4822D02*
X4837D01*
D02*
D12*
X4083Y4192D02*
G75*
G03X5460I689J1663D01*
G01*
Y5964*
G75*
G03X4083I-689J-1663*
G01*
Y4192*
X4357Y4298D02*
X5223D01*
Y4180*
X4357*
Y4298*
Y5983D02*
X5203D01*
Y5865*
X4357*
Y5983*
X4583Y5665D02*
G75*
G03Y5179J-243D01*
G01*
G75*
G03Y5665J243*
G01*
X0Y0D02*
M02*
