%FSLAX23Y23*%
%MOIN*%
G04 EasyPC Gerber Version 16.0.6 Build 3249 *
%ADD19R,0.03937X0.04291*%
%ADD17R,0.05500X0.05500*%
%ADD12C,0.00500*%
%ADD24R,0.11811X0.03937*%
%ADD21C,0.01000*%
%ADD23C,0.01181*%
%ADD22C,0.03200*%
%ADD20C,0.04800*%
%ADD18C,0.05500*%
%AMT71*0 Rectangle Pad at angle 30*21,1,0.07874,0.15748,0,0,30*%
%ADD71T71*%
X0Y0D02*
D02*
D12*
X4103Y4206D02*
G75*
G03X5440I668J1649D01*
G01*
Y5950*
G75*
G03X4103I-668J-1649*
G01*
Y4206*
X4281Y5673D02*
X4409Y5801D01*
G75*
G02X4420Y5805I11J-11*
G01*
X4932*
G75*
G02X4996Y5780I31J-15*
G01*
X5119Y5657*
X5185*
G75*
G02X5249Y5640I30J-16*
G01*
G75*
G02X5185Y5624I-34*
G01*
X5113*
G75*
G02X5101Y5629J16*
G01*
X4973Y5757*
G75*
G02X4932Y5775I-10J33*
G01*
X4426*
X4303Y5651*
G75*
G02X4305Y5640I-33J-11*
G01*
G75*
G02X4236I-34*
G01*
G75*
G02X4281Y5673I34*
G01*
X4306Y5153D02*
X4215Y5311D01*
X4305Y5363*
X4396Y5205*
X4306Y5153*
X4357Y4319D02*
X5223D01*
G75*
G02X5244Y4298J-21*
G01*
Y4180*
G75*
G02X5223Y4159I-21*
G01*
X4357*
G75*
G02X4336Y4180J21*
G01*
Y4298*
G75*
G02X4357Y4319I21*
G01*
Y6004D02*
X5203D01*
G75*
G02X5224Y5983J-21*
G01*
Y5865*
G75*
G02X5203Y5844I-21*
G01*
X4357*
G75*
G02X4336Y5865J21*
G01*
Y5983*
G75*
G02X4357Y6004I21*
G01*
X4444Y4564D02*
G75*
G02X4433Y4585I15J21D01*
G01*
G75*
G02X4486I26*
G01*
G75*
G02X4475Y4564I-26*
G01*
Y4529*
X4577Y4426*
G75*
G02X4608Y4400I4J-26*
G01*
G75*
G02X4555I-26*
G01*
G75*
G02X4555Y4404I26J0*
G01*
X4448Y4511*
G75*
G02X4444Y4522I11J11*
G01*
Y4564*
X4449Y4983D02*
G75*
G02X4401Y4999I-21J15D01*
G01*
G75*
G02X4449Y5014I26*
G01*
X4532*
X4707Y5190*
G75*
G02X4583Y5159I-125J232*
G01*
G75*
G02Y5686J264*
G01*
G75*
G02X4815Y5298I0J-264*
G01*
X4866Y5348*
G75*
G02X4877Y5353I11J-11*
G01*
X5219*
G75*
G02X5230Y5348J-15*
G01*
X5313Y5265*
G75*
G02X5344Y5239I4J-26*
G01*
G75*
G02X5291I-26*
G01*
G75*
G02X5291Y5243I26J0*
G01*
X5213Y5322*
X4883*
X4549Y4988*
G75*
G02X4538Y4983I-11J11*
G01*
X4449*
X4676Y4957D02*
G75*
G02X4645Y4983I-4J26D01*
G01*
G75*
G02X4698I26*
G01*
G75*
G02X4698Y4979I-26J0*
G01*
X4698Y4979*
X4865*
G75*
G02X4876Y4974J-15*
G01*
X4915Y4935*
G75*
G02X4919Y4924I-11J-11*
G01*
Y4576*
X5021Y4475*
X5198*
X5050Y4475*
G75*
G02X5039Y4480J15*
G01*
X5011Y4507*
G75*
G02X5007Y4518I11J11*
G01*
Y4849*
X4985*
G75*
G02X4937Y4865I-21J15*
G01*
G75*
G02X4948Y4886I26*
G01*
Y4925*
X4850Y5023*
G75*
G02X4845Y5034I11J11*
G01*
Y5199*
G75*
G02X4830Y5223I11J24*
G01*
G75*
G02X4883I26*
G01*
G75*
G02X4876Y5205I-26*
G01*
Y5040*
X4974Y4943*
G75*
G02X4979Y4932I-11J-11*
G01*
Y4886*
G75*
G02X4985Y4880I-15J-21*
G01*
X5015*
G75*
G02X5017Y4881I7J-15*
G01*
X5104Y4968*
G75*
G02X5155Y4959I25J-9*
G01*
G75*
G02X5115Y4936I-26*
G01*
X5038Y4859*
G75*
G02X5038Y4857I-16J6*
G01*
Y4525*
X5056Y4506*
X5258*
G75*
G02X5269Y4502J-15*
G01*
X5289Y4482*
G75*
G02X5293Y4471I-11J-11*
G01*
Y4456*
X5430*
Y4396*
X5291*
Y4409*
G75*
G02X5283Y4413I3J15*
G01*
X5267Y4429*
G75*
G02X5263Y4440I11J11*
G01*
Y4465*
X5252Y4475*
X5240*
G75*
G02X5245Y4459I-21J-16*
G01*
G75*
G02X5198Y4444I-26*
G01*
X5014*
G75*
G02X5003Y4448J15*
G01*
X4893Y4559*
G75*
G02X4889Y4569I11J11*
G01*
Y4917*
X4858Y4948*
X4691*
G75*
G02X4681Y4952J15*
G01*
X4676Y4957*
X4717Y4420D02*
G75*
G02X4673Y4440I-18J19D01*
G01*
G75*
G02X4723Y4451I26*
G01*
X4950*
G75*
G02X4997Y4436I21J-15*
G01*
G75*
G02X4950Y4420I-26*
G01*
X4717*
X4770Y5187D02*
G75*
G02Y5112J-38D01*
G01*
G75*
G02Y5187J38*
G01*
X4810Y4466D02*
X4730D01*
Y4546*
X4810*
Y4466*
X4889Y5457D02*
X4798Y5615D01*
X4888Y5667*
X4979Y5508*
X4889Y5457*
X4899Y5172D02*
G75*
G02X4972I37D01*
G01*
G75*
G02X4899I-37*
G01*
X5122Y4874D02*
G75*
G02X5090Y4900I-5J26D01*
G01*
G75*
G02X5143Y4904I26*
G01*
X5148*
G75*
G02X5159Y4899J-15*
G01*
X5166Y4892*
X5206*
Y4829*
X5146*
Y4869*
X5141Y4873*
X5128*
G75*
G02X5122Y4874I0J15*
G01*
X5208Y4824D02*
Y5076D01*
G75*
G02X5197Y5097I15J21*
G01*
G75*
G02X5249I26*
G01*
G75*
G02X5238Y5076I-26*
G01*
Y5029*
G75*
G02X5289Y5018I24J-11*
G01*
G75*
G02X5278Y4997I-26*
G01*
Y4831*
X5352Y4756*
X5430*
Y4696*
X5313*
X5352Y4656*
X5430*
Y4596*
X5291*
Y4656*
X5309*
X5212Y4753*
G75*
G02X5208Y4761I11J11*
G01*
Y4756*
X5144*
Y4824*
X5208*
X5432Y4494D02*
X5289D01*
Y4558*
X5432*
Y4494*
X4103Y5715D02*
G36*
Y5562D01*
X4359*
G75*
G02X4583Y5686I224J-139*
G01*
G75*
G02X4807Y5562I0J-264*
G01*
X4828*
X4798Y5615*
X4888Y5667*
X4948Y5562*
X5440*
Y5715*
X5061*
X5119Y5657*
X5185*
G75*
G02X5249Y5640I30J-16*
G01*
G75*
G02X5185Y5624I-34*
G01*
X5113*
G75*
G02X5101Y5629J16*
G01*
X4973Y5757*
G75*
G02X4932Y5775I-10J33*
G01*
X4426*
X4303Y5651*
G75*
G02X4305Y5640I-33J-11*
G01*
G75*
G02X4236I-34*
G01*
G75*
G02X4281Y5673I34*
G01*
X4323Y5715*
X4103*
G37*
X4323D02*
G36*
X4409Y5801D01*
G75*
G02X4420Y5805I11J-11*
G01*
X4932*
G75*
G02X4996Y5780I31J-15*
G01*
X5061Y5715*
X5440*
Y5924*
X5224*
Y5865*
G75*
G02X5203Y5844I-21*
G01*
X4357*
G75*
G02X4336Y5865J21*
G01*
Y5924*
X4103*
Y5715*
X4323*
G37*
X4103Y5258D02*
G36*
Y5150D01*
X4667*
X4707Y5190*
G75*
G02X4583Y5159I-125J232*
G01*
G75*
G02X4376Y5258I0J264*
G01*
X4366*
X4396Y5205*
X4306Y5153*
X4246Y5258*
X4103*
G37*
X4246D02*
G36*
X4215Y5311D01*
X4305Y5363*
X4366Y5258*
X4376*
G75*
G02X4359Y5562I207J164*
G01*
X4103*
Y5258*
X4246*
G37*
X5335D02*
G36*
G75*
G02X5344Y5239I-18J-20D01*
G01*
G75*
G02X5291I-26*
G01*
G75*
G02X5291Y5243I26J0*
G01*
X5213Y5322*
X4883*
X4711Y5150*
X4732*
G75*
G02X4770Y5187I38*
G01*
G75*
G02X4808Y5150J-38*
G01*
X4845*
Y5199*
G75*
G02X4830Y5223I11J24*
G01*
G75*
G02X4883I26*
G01*
G75*
G02X4876Y5205I-26*
G01*
Y5150*
X4907*
G75*
G02X4899Y5172I29J22*
G01*
G75*
G02X4972I37*
G01*
G75*
G02X4965Y5150I-37J0*
G01*
X5440*
Y5258*
X5335*
G37*
X5440D02*
G36*
Y5562D01*
X4948*
X4979Y5508*
X4889Y5457*
X4828Y5562*
X4807*
G75*
G02X4815Y5298I-224J-139*
G01*
X4866Y5348*
G75*
G02X4877Y5353I11J-11*
G01*
X5219*
G75*
G02X5230Y5348J-15*
G01*
X5313Y5265*
G75*
G02X5335Y5258I4J-26*
G01*
X5440*
G37*
X4103Y4239D02*
G36*
Y4206D01*
G75*
G03X5440I668J1649*
G01*
Y4239*
X5244*
Y4180*
G75*
G02X5223Y4159I-21*
G01*
X4357*
G75*
G02X4336Y4180J21*
G01*
Y4239*
X4103*
G37*
X4336D02*
G36*
Y4298D01*
G75*
G02X4357Y4319I21*
G01*
X5223*
G75*
G02X5244Y4298J-21*
G01*
Y4239*
X5440*
Y4438*
X5430*
Y4396*
X5291*
Y4409*
G75*
G02X5283Y4413I3J15*
G01*
X5267Y4429*
G75*
G02X5263Y4440I11J11*
G01*
Y4465*
X5252Y4475*
X5240*
G75*
G02X5245Y4459I-21J-16*
G01*
G75*
G02X5204Y4438I-26*
G01*
X4997*
G75*
G02X4997Y4436I-26J-2*
G01*
G75*
G02X4950Y4420I-26*
G01*
X4717*
G75*
G02X4673Y4438I-18J19*
G01*
X4566*
X4577Y4426*
G75*
G02X4608Y4400I4J-26*
G01*
G75*
G02X4555I-26*
G01*
G75*
G02X4555Y4404I26J0*
G01*
X4522Y4438*
X4103*
Y4239*
X4336*
G37*
Y5924D02*
G36*
Y5983D01*
G75*
G02X4357Y6004I21*
G01*
X5203*
G75*
G02X5224Y5983J-21*
G01*
Y5924*
X5440*
Y5950*
G75*
G03X4103I-668J-1649*
G01*
Y5924*
X4336*
G37*
X4103Y4493D02*
G36*
Y4438D01*
X4522*
X4467Y4493*
X4103*
G37*
X4467D02*
G36*
X4448Y4511D01*
G75*
G02X4444Y4522I11J11*
G01*
Y4526*
X4103*
Y4493*
X4467*
G37*
X4510D02*
G36*
X4566Y4438D01*
X4673*
G75*
G02X4673Y4440I26J2*
G01*
G75*
G02X4723Y4451I26*
G01*
X4950*
G75*
G02X4997Y4438I21J-15*
G01*
X5204*
G75*
G02X5198Y4444I15J22*
G01*
X5014*
G75*
G02X5003Y4448J15*
G01*
X4959Y4493*
X4810*
Y4466*
X4730*
Y4493*
X4510*
G37*
X4730D02*
G36*
Y4526D01*
X4477*
X4510Y4493*
X4730*
G37*
X4959D02*
G36*
X4926Y4526D01*
X4810*
Y4493*
X4959*
G37*
X5278D02*
G36*
X5289Y4482D01*
G75*
G02X5293Y4471I-11J-11*
G01*
Y4456*
X5430*
Y4438*
X5440*
Y4493*
X5278*
G37*
X5440D02*
G36*
Y4526D01*
X5432*
Y4494*
X5289*
Y4526*
X5038*
Y4525*
X5056Y4506*
X5258*
G75*
G02X5269Y4502J-15*
G01*
X5278Y4493*
X5440*
G37*
X4103Y5150D02*
G36*
Y4878D01*
X4889*
Y4917*
X4858Y4948*
X4691*
G75*
G02X4681Y4952J15*
G01*
X4676Y4957*
G75*
G02X4645Y4983I-4J26*
G01*
G75*
G02X4698I26*
G01*
G75*
G02X4698Y4979I-26J0*
G01*
X4698Y4979*
X4865*
G75*
G02X4876Y4974J-15*
G01*
X4915Y4935*
G75*
G02X4919Y4924I-11J-11*
G01*
Y4576*
X5021Y4475*
X5198*
X5050Y4475*
G75*
G02X5039Y4480J15*
G01*
X5011Y4507*
G75*
G02X5007Y4518I11J11*
G01*
Y4849*
X4985*
G75*
G02X4937Y4865I-21J15*
G01*
G75*
G02X4948Y4886I26*
G01*
Y4925*
X4850Y5023*
G75*
G02X4845Y5034I11J11*
G01*
Y5150*
X4808*
G75*
G02X4770Y5112I-38*
G01*
G75*
G02X4732Y5150J38*
G01*
X4711*
X4549Y4988*
G75*
G02X4538Y4983I-11J11*
G01*
X4449*
G75*
G02X4401Y4999I-21J15*
G01*
G75*
G02X4449Y5014I26*
G01*
X4532*
X4667Y5150*
X4103*
G37*
X4876D02*
G36*
Y5040D01*
X4974Y4943*
G75*
G02X4979Y4932I-11J-11*
G01*
Y4886*
G75*
G02X4985Y4880I-15J-21*
G01*
X5015*
G75*
G02X5017Y4881I7J-15*
G01*
X5104Y4968*
G75*
G02X5155Y4959I25J-9*
G01*
G75*
G02X5115Y4936I-26*
G01*
X5057Y4878*
X5103*
G75*
G02X5090Y4900I14J23*
G01*
G75*
G02X5143Y4904I26*
G01*
X5148*
G75*
G02X5159Y4899J-15*
G01*
X5166Y4892*
X5206*
Y4878*
X5208*
Y5076*
G75*
G02X5197Y5097I15J21*
G01*
G75*
G02X5249I26*
G01*
G75*
G02X5238Y5076I-26*
G01*
Y5029*
G75*
G02X5289Y5018I24J-11*
G01*
G75*
G02X5278Y4997I-26*
G01*
Y4878*
X5440*
Y5150*
X4965*
G75*
G02X4907I-29J22*
G01*
X4876*
G37*
X4103Y4878D02*
G36*
Y4526D01*
X4444*
Y4564*
G75*
G02X4433Y4585I15J21*
G01*
G75*
G02X4486I26*
G01*
G75*
G02X4475Y4564I-26*
G01*
Y4529*
X4477Y4526*
X4730*
Y4546*
X4810*
Y4526*
X4926*
X4893Y4559*
G75*
G02X4889Y4569I11J11*
G01*
Y4878*
X4103*
G37*
X5057D02*
G36*
X5038Y4859D01*
G75*
G02X5038Y4857I-16J6*
G01*
Y4526*
X5289*
Y4558*
X5432*
Y4526*
X5440*
Y4878*
X5278*
Y4831*
X5352Y4756*
X5430*
Y4696*
X5313*
X5352Y4656*
X5430*
Y4596*
X5291*
Y4656*
X5309*
X5212Y4753*
G75*
G02X5208Y4761I11J11*
G01*
Y4756*
X5144*
Y4824*
X5208*
Y4878*
X5206*
Y4829*
X5146*
Y4869*
X5141Y4873*
X5128*
G75*
G02X5122Y4874I0J15*
G01*
G75*
G02X5103Y4878I-5J26*
G01*
X5057*
G37*
X5238Y5007D02*
Y4770D01*
X5291Y4717*
Y4756*
X5309*
X5251Y4814*
G75*
G02X5247Y4825I11J11*
G01*
Y4997*
G75*
G02X5238Y5007I15J21*
G01*
G36*
Y4770*
X5291Y4717*
Y4756*
X5309*
X5251Y4814*
G75*
G02X5247Y4825I11J11*
G01*
Y4997*
G75*
G02X5238Y5007I15J21*
G01*
G37*
D02*
D17*
X4770Y4506D03*
D02*
D18*
Y5150D03*
D02*
D19*
X5176Y4790D03*
Y4860D03*
D02*
D71*
X4306Y5258D03*
X4888Y5562D03*
D02*
D20*
X4270Y5640D03*
X4936Y5172D03*
X4963Y5790D03*
X5215Y5640D03*
D02*
D21*
X4265Y5258D02*
X4243D01*
X4306Y5185D02*
Y5150D01*
Y5332D02*
Y5367D01*
X4346Y5258D02*
X4368D01*
X4428Y4999D02*
X4538D01*
X4877Y5337*
X5219*
X5317Y5239*
X4459Y4585D02*
Y4522D01*
X4581Y4400*
X4748Y4506D02*
X4728D01*
X4770Y4483D02*
Y4463D01*
Y4528D02*
Y4548D01*
X4793Y4506D02*
X4813D01*
X4848Y5562D02*
X4826D01*
X4888Y5488D02*
Y5453D01*
Y5635D02*
Y5670D01*
X4917Y5172D02*
X4897D01*
X4929Y5562D02*
X4951D01*
X4936Y5153D02*
Y5133D01*
Y5191D02*
Y5211D01*
X4955Y5172D02*
X4975D01*
X4963Y4865D02*
Y4932D01*
X4861Y5034*
Y5219*
X4857Y5223*
X4963Y4865D02*
X5022D01*
X4963Y5790D02*
X4420D01*
X4270Y5640*
X4971Y4436D02*
X4703D01*
X4699Y4440*
X5022Y4865D02*
Y4518D01*
X5050Y4491*
X5258*
X5278Y4471*
Y4440*
X5294Y4424*
X5358*
X5361Y4426*
X5022Y4865D02*
X5117Y4959D01*
X5128*
X5117Y4900D02*
X5128Y4888D01*
X5148*
X5176Y4860*
X5161Y4790D02*
X5141D01*
X5176Y4774D02*
Y4754D01*
X5219Y4459D02*
X5014D01*
X4904Y4569*
Y4924*
X4865Y4963*
X4691*
X4672Y4983*
X5223Y5097D02*
Y4764D01*
X5361Y4626*
X5262Y5018D02*
Y4825D01*
X5361Y4726*
X5307Y4526D02*
X5287D01*
X5361Y4511D02*
Y4491D01*
Y4541D02*
Y4561D01*
X5415Y4526D02*
X5435D01*
D02*
D22*
X4428Y4999D03*
X4459Y4585D03*
X4581Y4400D03*
X4672Y4983D03*
X4699Y4440D03*
X4857Y5223D03*
X4963Y4865D03*
X4971Y4436D03*
X5117Y4900D03*
X5128Y4959D03*
X5219Y4459D03*
X5223Y5097D03*
X5262Y5018D03*
X5317Y5239D03*
D02*
D23*
X5215Y5640D02*
X5113D01*
X4963Y5790*
D02*
D24*
X5361Y4426D03*
Y4526D03*
Y4626D03*
Y4726D03*
X0Y0D02*
M02*
