%FSLAX23Y23*%
%MOIN*%
G04 EasyPC Gerber Version 16.0.6 Build 3249 *
%ADD25C,0.00394*%
%ADD12C,0.00500*%
X0Y0D02*
D02*
D12*
X5129Y4709D02*
Y4672D01*
X5151*
X5157Y4675*
X5160Y4681*
X5157Y4688*
X5151Y4691*
X5129*
X5151D02*
X5160Y4709D01*
X5204D02*
X5179D01*
X5201Y4688*
X5204Y4681*
X5201Y4675*
X5195Y4672*
X5185*
X5179Y4675*
X5149Y4764D02*
X5202D01*
Y4887*
X5149*
Y4764*
D02*
D25*
X5109Y4826D02*
X5117Y4834D01*
X5109Y4842*
X5100Y4832D02*
X5087D01*
X5050Y4831D02*
X5048Y4828D01*
X5045Y4826*
X5039*
X5035Y4828*
X5034Y4831*
X5035Y4834*
X5039Y4835*
X5045*
X5048Y4837*
X5050Y4840*
X5048Y4843*
X5045Y4845*
X5039*
X5035Y4843*
X5034Y4840*
X5012Y4828D02*
X5014Y4826D01*
X5017*
X5020*
X5023Y4828*
X5025Y4831*
Y4835*
X5023Y4837*
X5020Y4839*
X5017*
X5014Y4837*
X5012Y4835*
Y4834*
X5014Y4832*
X5017Y4831*
X5020*
X5023Y4832*
X5025Y4834*
X4996Y4839D02*
X4990D01*
X4993Y4842D02*
Y4828D01*
X4992Y4826*
X4990*
X4989Y4828*
X4946Y4839D02*
X4940D01*
X4943Y4842D02*
Y4828D01*
X4942Y4826*
X4940*
X4939Y4828*
X4918Y4826D02*
Y4839D01*
Y4843D02*
X4900Y4826*
Y4839D01*
Y4837D02*
X4898Y4839D01*
X4895*
X4893Y4837*
Y4832*
Y4837D02*
X4892Y4839D01*
X4889*
X4887Y4837*
Y4826*
X4862Y4828D02*
X4864Y4826D01*
X4867*
X4870*
X4873Y4828*
X4875Y4831*
Y4835*
X4873Y4837*
X4870Y4839*
X4867*
X4864Y4837*
X4862Y4835*
Y4834*
X4864Y4832*
X4867Y4831*
X4870*
X4873Y4832*
X4875Y4834*
X5203Y4406D02*
X5179Y4376D01*
X5164Y4406D02*
X5139Y4376D01*
X5125D02*
X5112Y4406D01*
X5100Y4376*
X5120Y4388D02*
X5105D01*
X5085Y4386D02*
X5065D01*
X5046Y4406D02*
X5043Y4376D01*
X5034Y4391*
X5024Y4376*
X5021Y4406*
X5006Y4393D02*
X5002Y4396D01*
X4994*
X4989Y4393*
X4987Y4388*
Y4381*
X4989Y4378*
X4994Y4376*
X4999*
X5004Y4378*
X5006Y4381*
Y4383*
X5004Y4386*
X4999Y4388*
X4994*
X4989Y4386*
X4987Y4383*
Y4381D02*
Y4376D01*
X4962Y4396D02*
X4952D01*
X4957Y4401D02*
Y4378D01*
X4955Y4376*
X4952*
X4950Y4378*
X4908Y4393D02*
X4913Y4396D01*
X4920*
X4925Y4393*
X4928Y4388*
Y4383*
X4925Y4378*
X4920Y4376*
X4913*
X4908Y4378*
X4888Y4376D02*
Y4406D01*
Y4388D02*
X4886Y4393D01*
X4881Y4396*
X4876*
X4871Y4393*
X4869Y4388*
Y4376*
X4849D02*
X4824Y4406D01*
X4810Y4376D02*
X4785Y4406D01*
X4691D02*
X4679Y4376D01*
X4667Y4406*
X4608Y4376D02*
X4598D01*
X4603D02*
Y4406D01*
X4608Y4401*
X4571Y4376D02*
X4568Y4378D01*
X4571Y4381*
X4573Y4378*
X4571Y4376*
X4532Y4378D02*
X4527Y4376D01*
X4522*
X4517Y4378*
X4514Y4383*
Y4398*
X4517Y4403*
X4522Y4406*
X4527*
X4532Y4403*
X4534Y4398*
Y4383*
X4532Y4378*
X4517Y4403*
X5203Y4329D02*
Y4358D01*
X5191Y4344*
X5179Y4358*
Y4329*
X5164Y4346D02*
X5159Y4348D01*
X5152*
X5147Y4346*
X5144Y4341*
Y4334*
X5147Y4331*
X5152Y4329*
X5157*
X5161Y4331*
X5164Y4334*
Y4336*
X5161Y4339*
X5157Y4341*
X5152*
X5147Y4339*
X5144Y4336*
Y4334D02*
Y4329D01*
X5105Y4341D02*
X5107Y4346D01*
X5112Y4348*
X5117*
X5122Y4346*
X5125Y4341*
Y4336*
X5122Y4331*
X5117Y4329*
X5112*
X5107Y4331*
X5105Y4336*
Y4329D02*
Y4358D01*
X5065Y4331D02*
X5068Y4329D01*
X5073*
X5078*
X5083Y4331*
X5085Y4336*
Y4344*
X5083Y4346*
X5078Y4348*
X5073*
X5068Y4346*
X5065Y4344*
Y4341*
X5068Y4339*
X5073Y4336*
X5078*
X5083Y4339*
X5085Y4341*
X5006Y4336D02*
X5004Y4331D01*
X4999Y4329*
X4994*
X4989Y4331*
X4987Y4336*
Y4341*
X4989Y4346*
X4994Y4348*
X4999*
X5004Y4346*
X5006Y4341*
Y4329D02*
Y4358D01*
X4967Y4348D02*
X4965Y4339D01*
X4960Y4334*
X4955*
X4950Y4339*
X4947Y4348*
X4950Y4339D02*
X4952Y4329D01*
X4955Y4324*
X4960Y4321*
X4965Y4324*
X4915Y4329D02*
X4913Y4331D01*
X4915Y4334*
X4918Y4331*
X4915Y4329*
Y4341D02*
X4913Y4344D01*
X4915Y4346*
X4918Y4344*
X4915Y4341*
X4849Y4329D02*
X4837Y4358D01*
X4824Y4329*
X4844Y4341D02*
X4829D01*
X4810Y4329D02*
Y4348D01*
Y4341D02*
X4807Y4346D01*
X4802Y4348*
X4797*
X4792Y4346*
X4790Y4341*
Y4329*
X4751Y4341D02*
X4753Y4346D01*
X4758Y4348*
X4763*
X4768Y4346*
X4770Y4341*
Y4336*
X4768Y4331*
X4763Y4329*
X4758*
X4753Y4331*
X4751Y4336*
Y4329D02*
Y4358D01*
X4711Y4331D02*
X4714Y4329D01*
X4719*
X4723*
X4728Y4331*
X4731Y4336*
Y4344*
X4728Y4346*
X4723Y4348*
X4719*
X4714Y4346*
X4711Y4344*
Y4341*
X4714Y4339*
X4719Y4336*
X4723*
X4728Y4339*
X4731Y4341*
X4691Y4329D02*
Y4348D01*
Y4341D02*
X4689Y4346D01*
X4684Y4348*
X4679*
X4674Y4346*
X4652Y4331D02*
X4647Y4329D01*
X4637*
X4632Y4331*
Y4336*
X4637Y4339*
X4647*
X4652Y4341*
Y4346*
X4647Y4348*
X4637*
X4632Y4346*
X4573Y4336D02*
X4571Y4331D01*
X4566Y4329*
X4556*
X4551Y4331*
X4549Y4336*
X4551Y4341*
X4556Y4344*
X4566*
X4571Y4346*
X4573Y4351*
X4571Y4356*
X4566Y4358*
X4556*
X4551Y4356*
X4549Y4351*
X4534Y4329D02*
Y4358D01*
Y4339D02*
X4527D01*
X4514Y4348*
X4527Y4339D02*
X4514Y4329D01*
X4495Y4336D02*
X4492Y4331D01*
X4487Y4329*
X4482*
X4477Y4331*
X4475Y4336*
Y4341*
X4477Y4346*
X4482Y4348*
X4487*
X4492Y4346*
X4495Y4341*
Y4336*
X4455D02*
X4453Y4331D01*
X4448Y4329*
X4443*
X4438Y4331*
X4436Y4336*
Y4341*
X4438Y4346*
X4443Y4348*
X4448*
X4453Y4346*
X4455Y4341*
Y4336*
X4396Y4341D02*
X4399Y4346D01*
X4404Y4348*
X4409*
X4413Y4346*
X4416Y4341*
Y4339*
X4413Y4334*
X4409Y4331*
X4404*
X4399Y4334*
X4396Y4339*
Y4348D02*
Y4329D01*
X4399Y4324*
X4404Y4321*
X4411*
X4416Y4324*
X5400Y4358D02*
X5399Y4355D01*
X5396Y4353*
X5390*
X5387Y4355*
X5385Y4358*
X5387Y4361*
X5390Y4362*
X5396*
X5399Y4364*
X5400Y4367*
X5399Y4370*
X5396Y4371*
X5390*
X5387Y4370*
X5385Y4367*
X5366Y4362D02*
X5363Y4361D01*
X5362Y4358*
X5363Y4355*
X5366Y4353*
X5377*
Y4371*
X5366*
X5363Y4370*
X5362Y4367*
X5363Y4364*
X5366Y4362*
X5377*
X5353Y4371D02*
X5351Y4353D01*
X5346Y4362*
X5340Y4353*
X5338Y4371*
X0Y0D02*
M02*
