%FSLAX23Y23*%
%MOIN*%
G04 EasyPC Gerber Version 16.0.6 Build 3249 *
%ADD15R,0.00984X0.03937*%
%ADD19R,0.03937X0.04291*%
%ADD80R,0.05500X0.06000*%
%ADD17R,0.05500X0.05500*%
%ADD14R,0.06300X0.06300*%
%ADD16R,0.06000X0.05500*%
%ADD21C,0.01000*%
%ADD23C,0.01181*%
%ADD22C,0.03200*%
%ADD20C,0.04800*%
%ADD18C,0.05500*%
%AMT71*0 Rectangle Pad at angle 30*21,1,0.07874,0.15748,0,0,30*%
%ADD71T71*%
X0Y0D02*
D02*
D14*
X4199Y4617D03*
Y4751D03*
Y5010D03*
Y5144D03*
Y5404D03*
Y5538D03*
X4310Y4373D03*
Y5790D03*
X4444Y4373D03*
Y5790D03*
X4703Y4373D03*
Y5790D03*
X4837Y4373D03*
Y5790D03*
X5097Y4373D03*
Y5790D03*
X5231Y4373D03*
Y5790D03*
X5349Y4577D03*
Y4711D03*
Y5010D03*
Y5144D03*
Y5463D03*
Y5597D03*
D02*
D15*
X4937Y4812D03*
Y5028D03*
X4962Y4812D03*
Y5028D03*
X4988Y4812D03*
Y5028D03*
X5013Y4812D03*
Y5028D03*
X5039Y4812D03*
Y5028D03*
X5065Y4812D03*
Y5028D03*
X5090Y4812D03*
Y5028D03*
D02*
D16*
X5080Y5215D03*
X5170D03*
D02*
D17*
X4770Y4506D03*
D02*
D18*
Y5150D03*
D02*
D19*
X4357Y4590D03*
Y4660D03*
Y4885D03*
Y4955D03*
X4593Y4590D03*
Y4660D03*
Y4885D03*
Y4955D03*
X5184Y4964D03*
Y5034D03*
D02*
D71*
X4357Y5168D03*
X4888Y5562D03*
D02*
D20*
X4270Y5640D03*
X4936Y5172D03*
X4963Y5790D03*
X5215Y5640D03*
D02*
D21*
X4140Y4900D02*
Y5085D01*
X4199Y5144*
X4140Y4900D02*
Y4640D01*
X4156Y4625*
X4191*
X4199Y4617*
Y4483*
X4310Y4373*
X4199Y5010D02*
Y5042D01*
X4266Y5109*
Y5436*
X4199Y5503*
Y5538*
Y5404D02*
X4140D01*
X4125Y5420*
Y5735*
X4199Y5810*
X4290*
X4310Y5790*
X4199Y5404D02*
Y5144D01*
X4270Y5640D02*
X4231D01*
X4203Y5613*
Y5542*
X4199Y5538*
X4357Y4590D02*
X4455D01*
X4459Y4585*
X4357Y4660D02*
X4404D01*
X4459Y4715*
X4959*
X4987Y4743*
Y4811*
X4988Y4812*
X4357Y4955D02*
X4384D01*
X4428Y4999*
X4357Y4955D02*
X4313D01*
X4286Y4928*
X4164*
X4140Y4904*
Y4900*
X4357Y5168D02*
X4443D01*
X4455Y5156*
X4695*
X4770Y5231*
X4857*
Y5223*
X4444Y4373D02*
Y4463D01*
X4471Y4491*
X4569*
X4589Y4510*
Y4586*
X4593Y4590*
X4444Y5790D02*
X4703D01*
X4581Y4400D02*
Y4380D01*
X4597Y4365*
X4695*
X4703Y4373*
X4593Y4590D02*
X4558D01*
X4510Y4542*
X4321*
X4294Y4569*
Y4735*
X4274Y4754*
X4203*
X4199Y4751*
X4593Y4660D02*
X4931D01*
X5014Y4743*
Y4811*
X5013Y4812*
X4593Y4885D02*
Y4896D01*
X5014*
X5038Y4872*
Y4816*
X5039Y4815*
Y4812*
X4593Y4955D02*
X4644D01*
X4672Y4983*
X4593Y4955D02*
Y4995D01*
X4542Y5046*
X4235*
X4199Y5010*
X4703Y4373D02*
Y4436D01*
X4699Y4440*
X4837Y4373D02*
X4940D01*
X4987Y4325*
X4991*
X4995Y4321*
X5180*
X5231Y4373*
X4857Y5223D02*
Y5530D01*
X4888Y5562*
X4937Y4812D02*
Y4838D01*
X4963Y4865*
X4937Y5028D02*
Y5171D01*
X4936Y5172*
X4947Y5288D02*
Y5184D01*
X4936Y5172*
X4947Y5378D02*
Y5503D01*
X4888Y5562*
X4962Y5028D02*
Y5098D01*
X5080Y5215*
X4971Y4436D02*
Y4562D01*
X5022Y4613*
X5156*
X5243Y4699*
X5337*
X5349Y4711*
X4988Y5028D02*
Y5078D01*
X5065Y5156*
X5144*
X5164Y5176*
Y5209*
X5170Y5215*
X5013Y5028D02*
Y5072D01*
X5038Y5097*
X5223*
X5039Y5028D02*
Y5070D01*
X5046Y5077*
X5144*
Y5073*
X5184Y5034*
X5065Y5028D02*
Y5000D01*
X5065Y4999*
X5046Y4979*
X4869*
X4770Y5077*
Y5150*
X5090Y4812D02*
Y4874D01*
X5117Y4900*
X5097Y4373D02*
X4991D01*
X4798Y4565*
X4617*
X4593Y4590*
X5097Y4373D02*
Y4424D01*
X5243Y4569*
X5341*
X5349Y4577*
X5097Y5790D02*
X4963D01*
X5128Y4959D02*
X5179D01*
X5184Y4964*
Y5034D02*
X5247D01*
X5262Y5018*
X5219Y4459D02*
Y4384D01*
X5231Y4373*
Y5790D02*
Y5758D01*
X5199Y5727*
X4900*
X4837Y5790*
X5317Y5239D02*
Y5176D01*
X5349Y5144*
Y4577D02*
X5408D01*
X5412Y4581*
Y5762*
X5384Y5790*
X5231*
X5349Y4711D02*
Y5010D01*
Y5014*
X5282Y5081*
Y5396*
X5349Y5463*
X5314*
X5128Y5648*
X4995*
X4947Y5695*
X4798*
X4703Y5790*
D02*
D22*
X4428Y4999D03*
X4459Y4585D03*
X4581Y4400D03*
X4672Y4983D03*
X4699Y4440D03*
X4857Y5223D03*
X4963Y4865D03*
X4971Y4436D03*
X5117Y4900D03*
X5128Y4959D03*
X5219Y4459D03*
X5223Y5097D03*
X5262Y5018D03*
X5317Y5239D03*
D02*
D23*
X4962Y4812D02*
Y4753D01*
X4951Y4743*
X4499*
X4357Y4885*
X5349Y5597D02*
X5258D01*
X5215Y5640*
D02*
D80*
X4947Y5288D03*
Y5378D03*
X0Y0D02*
M02*
