%FSLAX23Y23*%
%MOIN*%
G04 EasyPC Gerber Version 16.0.6 Build 3249 *
%ADD28R,0.01584X0.04537*%
%ADD74R,0.04537X0.04891*%
%ADD75R,0.06100X0.06600*%
%ADD72R,0.06100X0.06100*%
%ADD27R,0.06900X0.06900*%
%ADD78C,0.03800*%
%ADD77C,0.05400*%
%ADD73C,0.06100*%
%ADD29R,0.06600X0.06100*%
%AMT76*0 Rectangle Pad at angle 30*21,1,0.08474,0.16348,0,0,30*%
%ADD76T76*%
X0Y0D02*
D02*
D27*
X4199Y4617D03*
Y4751D03*
Y5010D03*
Y5144D03*
Y5404D03*
Y5538D03*
X4310Y4373D03*
Y5790D03*
X4444Y4373D03*
Y5790D03*
X4703Y4373D03*
Y5790D03*
X4837Y4373D03*
Y5790D03*
X5097Y4373D03*
Y5790D03*
X5231Y4373D03*
Y5790D03*
X5349Y4577D03*
Y4711D03*
Y5010D03*
Y5144D03*
Y5463D03*
Y5597D03*
D02*
D28*
X4937Y4812D03*
Y5028D03*
X4962Y4812D03*
Y5028D03*
X4988Y4812D03*
Y5028D03*
X5013Y4812D03*
Y5028D03*
X5039Y4812D03*
Y5028D03*
X5065Y4812D03*
Y5028D03*
X5090Y4812D03*
Y5028D03*
D02*
D29*
X5080Y5215D03*
X5170D03*
D02*
D72*
X4770Y4506D03*
D02*
D73*
Y5150D03*
D02*
D74*
X4357Y4590D03*
Y4660D03*
Y4885D03*
Y4955D03*
X4593Y4590D03*
Y4660D03*
Y4885D03*
Y4955D03*
X5184Y4964D03*
Y5034D03*
D02*
D75*
X4947Y5288D03*
Y5378D03*
D02*
D76*
X4357Y5168D03*
X4888Y5562D03*
D02*
D77*
X4270Y5640D03*
X4936Y5172D03*
X4963Y5790D03*
X5215Y5640D03*
D02*
D78*
X4428Y4999D03*
X4459Y4585D03*
X4581Y4400D03*
X4672Y4983D03*
X4699Y4440D03*
X4857Y5223D03*
X4963Y4865D03*
X4971Y4436D03*
X5117Y4900D03*
X5128Y4959D03*
X5219Y4459D03*
X5223Y5097D03*
X5262Y5018D03*
X5317Y5239D03*
X0Y0D02*
M02*
