%FSLAX23Y23*%
%MOIN*%
G04 EasyPC Gerber Version 16.0.6 Build 3249 *
%ADD11C,0.00300*%
%ADD12C,0.00500*%
%ADD13C,0.00600*%
X0Y0D02*
D02*
D11*
X4278Y4780D02*
X4303Y4750D01*
X4317Y4780D02*
X4342Y4750D01*
X4357D02*
X4369Y4780D01*
X4381Y4750*
X4362Y4762D02*
X4377D01*
X4396Y4760D02*
X4416D01*
X4436Y4780D02*
X4438Y4750D01*
X4448Y4765*
X4458Y4750*
X4460Y4780*
X4475Y4767D02*
X4480Y4770D01*
X4487*
X4492Y4767*
X4495Y4762*
Y4755*
X4492Y4753*
X4487Y4750*
X4482*
X4477Y4753*
X4475Y4755*
Y4757*
X4477Y4760*
X4482Y4762*
X4487*
X4492Y4760*
X4495Y4757*
Y4755D02*
Y4750D01*
X4519Y4770D02*
X4529D01*
X4524Y4775D02*
Y4753D01*
X4527Y4750*
X4529*
X4532Y4753*
X4573Y4767D02*
X4568Y4770D01*
X4561*
X4556Y4767*
X4554Y4762*
Y4757*
X4556Y4753*
X4561Y4750*
X4568*
X4573Y4753*
X4593Y4750D02*
Y4780D01*
Y4762D02*
X4596Y4767D01*
X4600Y4770*
X4605*
X4610Y4767*
X4613Y4762*
Y4750*
X4632D02*
X4657Y4780D01*
X4672Y4750D02*
X4696Y4780D01*
X4776Y4622D02*
X4783Y4625D01*
X4786Y4631*
Y4644*
X4783Y4650*
X4776Y4653*
X4770Y4650*
X4767Y4644*
Y4631*
X4764Y4625*
X4758Y4622*
X4751Y4625*
X4748Y4631*
Y4644*
X4751Y4650*
X4758Y4653*
X4748Y4672D02*
X4786Y4675D01*
X4767Y4687*
X4786Y4700*
X4748Y4703*
X4786Y4728D02*
Y4741D01*
Y4734D02*
X4748D01*
X4755Y4728*
D02*
D12*
X4149Y4528D02*
Y4565D01*
X4168*
X4174Y4562*
X4177Y4559*
X4181Y4553*
Y4540*
X4177Y4534*
X4174Y4531*
X4168Y4528*
X4149*
X4206D02*
X4218D01*
X4212D02*
Y4565D01*
X4206Y4559*
X4252Y4531D02*
X4259Y4528D01*
X4265*
X4271Y4531*
X4274Y4537*
Y4556*
X4271Y4562*
X4265Y4565*
X4259*
X4252Y4562*
X4249Y4556*
Y4537*
X4252Y4531*
X4271Y4562*
X4149Y4922D02*
Y4959D01*
X4168*
X4174Y4956*
X4177Y4953*
X4181Y4947*
Y4934*
X4177Y4928*
X4174Y4925*
X4168Y4922*
X4149*
X4206D02*
X4218D01*
X4212D02*
Y4959D01*
X4206Y4953*
X4256Y4922D02*
X4268D01*
X4262D02*
Y4959D01*
X4256Y4953*
X4149Y5315D02*
Y5353D01*
X4168*
X4174Y5350*
X4177Y5347*
X4181Y5340*
Y5328*
X4177Y5322*
X4174Y5319*
X4168Y5315*
X4149*
X4206D02*
X4218D01*
X4212D02*
Y5353D01*
X4206Y5347*
X4274Y5315D02*
X4249D01*
X4271Y5337*
X4274Y5344*
X4271Y5350*
X4265Y5353*
X4256*
X4249Y5350*
X4159Y4794D02*
Y4574D01*
X4239*
Y4794*
X4159*
Y5187D02*
Y4967D01*
X4239*
Y5187*
X4159*
Y5581D02*
Y5361D01*
X4239*
Y5581*
X4159*
X4161Y4705D02*
X4240D01*
X4161Y5099D02*
X4240D01*
X4161Y5493D02*
X4240D01*
X4221Y5840D02*
X4258D01*
Y5821*
X4255Y5815*
X4252Y5812*
X4246Y5809*
X4233*
X4227Y5812*
X4224Y5815*
X4221Y5821*
Y5840*
Y5784D02*
Y5771D01*
Y5777D02*
X4258D01*
X4252Y5784*
X4267Y4333D02*
X4487D01*
Y4413*
X4267*
Y4333*
X4310Y5036D02*
Y5073D01*
X4332*
X4338Y5070*
X4342Y5064*
X4338Y5058*
X4332Y5054*
X4310*
X4332D02*
X4342Y5036D01*
X4363Y5039D02*
X4370Y5036D01*
X4376*
X4382Y5039*
X4385Y5045*
X4382Y5051*
X4376Y5054*
X4370*
X4376D02*
X4382Y5058D01*
X4385Y5064*
X4382Y5070*
X4376Y5073*
X4370*
X4363Y5070*
X4330Y4981D02*
X4383D01*
Y4858*
X4330*
Y4981*
X4355Y4334D02*
Y4413D01*
X4383Y4563D02*
X4330D01*
Y4686*
X4383*
Y4563*
X4398Y5828D02*
Y5749D01*
X4403Y4509D02*
Y4471D01*
X4381*
X4375Y4474*
X4372Y4481*
X4375Y4487*
X4381Y4490*
X4403*
X4381D02*
X4372Y4509D01*
X4338D02*
Y4471D01*
X4353Y4496*
X4328*
X4487Y5830D02*
X4267D01*
Y5750*
X4487*
Y5830*
X4532Y4323D02*
X4495D01*
Y4341*
X4498Y4348*
X4501Y4351*
X4507Y4354*
X4520*
X4526Y4351*
X4529Y4348*
X4532Y4341*
Y4323*
Y4382D02*
X4529Y4388D01*
X4523Y4394*
X4513Y4398*
X4504*
X4498Y4394*
X4495Y4388*
Y4382*
X4498Y4376*
X4504Y4373*
X4510Y4376*
X4513Y4382*
Y4388*
X4510Y4394*
X4504Y4398*
X4547Y5036D02*
Y5073D01*
X4568*
X4575Y5070*
X4578Y5064*
X4575Y5058*
X4568Y5054*
X4547*
X4568D02*
X4578Y5036D01*
X4597Y5045D02*
X4600Y5051D01*
X4606Y5054*
X4612*
X4618Y5051*
X4622Y5045*
X4618Y5039*
X4612Y5036*
X4606*
X4600Y5039*
X4597Y5045*
Y5054*
X4600Y5064*
X4606Y5070*
X4612Y5073*
X4567Y4981D02*
X4620D01*
Y4858*
X4567*
Y4981*
X4615Y5840D02*
X4652D01*
Y5821*
X4649Y5815*
X4646Y5812*
X4640Y5809*
X4627*
X4621Y5812*
X4618Y5815*
X4615Y5821*
Y5840*
Y5765D02*
Y5790D01*
X4636Y5768*
X4643Y5765*
X4649Y5768*
X4652Y5774*
Y5784*
X4649Y5790*
X4620Y4563D02*
X4567D01*
Y4686*
X4620*
Y4563*
X4640Y4509D02*
Y4471D01*
X4618*
X4611Y4474*
X4608Y4481*
X4611Y4487*
X4618Y4490*
X4640*
X4618D02*
X4608Y4509D01*
X4590Y4506D02*
X4583Y4509D01*
X4574*
X4568Y4506*
X4565Y4499*
Y4496*
X4568Y4490*
X4574Y4487*
X4590*
Y4471*
X4565*
X4660Y4333D02*
X4880D01*
Y4413*
X4660*
Y4333*
X4748Y4334D02*
Y4413D01*
X4792Y5828D02*
Y5749D01*
X4880Y5830D02*
X4660D01*
Y5750*
X4880*
Y5830*
X4929Y5204D02*
X4926Y5201D01*
X4919Y5198*
X4910*
X4904Y5201*
X4901Y5204*
X4897Y5210*
Y5223*
X4901Y5229*
X4904Y5232*
X4910Y5235*
X4919*
X4926Y5232*
X4929Y5229*
X4954Y5198D02*
X4966D01*
X4960D02*
Y5235D01*
X4954Y5229*
X4912Y5413D02*
Y5253D01*
X4982*
Y5413*
X4912*
X4922Y5058D02*
X5106D01*
Y4782*
X4922*
Y4905*
X4937*
Y4935*
X4922*
Y5058*
X4926Y4323D02*
X4888D01*
Y4341*
X4891Y4348*
X4895Y4351*
X4901Y4354*
X4913*
X4920Y4351*
X4923Y4348*
X4926Y4341*
Y4323*
X4907Y4382D02*
Y4388D01*
X4904Y4394*
X4898Y4398*
X4891Y4394*
X4888Y4388*
Y4382*
X4891Y4376*
X4898Y4373*
X4904Y4376*
X4907Y4382*
X4910Y4376*
X4916Y4373*
X4923Y4376*
X4926Y4382*
Y4388*
X4923Y4394*
X4916Y4398*
X4910Y4394*
X4907Y4388*
X4946Y5096D02*
X4958D01*
X4952D02*
Y5133D01*
X4946D02*
X4958D01*
X5018Y5102D02*
X5015Y5099D01*
X5008Y5096*
X4999*
X4993Y5099*
X4990Y5102*
X4987Y5108*
Y5121*
X4990Y5127*
X4993Y5130*
X4999Y5133*
X5008*
X5015Y5130*
X5018Y5127*
X5043Y5096D02*
X5055D01*
X5049D02*
Y5133D01*
X5043Y5127*
X5045Y5180D02*
X5205D01*
Y5250*
X5045*
Y5180*
X5054Y4333D02*
X5274D01*
Y4413*
X5054*
Y4333*
Y5750D02*
X5274D01*
Y5830*
X5054*
Y5750*
X5137Y5114D02*
Y5152D01*
X5159*
X5165Y5149*
X5168Y5143*
X5165Y5136*
X5159Y5133*
X5137*
X5159D02*
X5168Y5114D01*
X5193D02*
X5206D01*
X5200D02*
Y5152D01*
X5193Y5146*
X5142Y4334D02*
Y4413D01*
Y5752D02*
Y5830D01*
X5157Y5060D02*
X5210D01*
Y4937*
X5157*
Y5060*
X5184Y5260D02*
Y5575D01*
X5066*
Y5260*
X5184*
X5260Y5165D02*
X5223Y5196D01*
Y5165D02*
X5260Y5196D01*
Y5231D02*
X5223D01*
Y5215D02*
Y5246D01*
X5260Y5265D02*
X5223Y5281D01*
X5260Y5296*
X5245Y5271D02*
Y5290D01*
X5223Y5315D02*
X5260D01*
Y5346*
Y5371D02*
Y5384D01*
Y5378D02*
X5223D01*
X5229Y5371*
X5299Y4489D02*
Y4526D01*
X5318*
X5324Y4523*
X5327Y4520*
X5330Y4514*
Y4501*
X5327Y4495*
X5324Y4492*
X5318Y4489*
X5299*
X5349Y4498D02*
X5352Y4504D01*
X5358Y4507*
X5365*
X5371Y4504*
X5374Y4498*
X5371Y4492*
X5365Y4489*
X5358*
X5352Y4492*
X5349Y4498*
Y4507*
X5352Y4517*
X5358Y4523*
X5365Y4526*
X5299Y4922D02*
Y4959D01*
X5318*
X5324Y4956*
X5327Y4953*
X5330Y4947*
Y4934*
X5327Y4928*
X5324Y4925*
X5318Y4922*
X5299*
X5349Y4925D02*
X5355Y4922D01*
X5365*
X5371Y4925*
X5374Y4931*
Y4934*
X5371Y4940*
X5365Y4944*
X5349*
Y4959*
X5374*
X5299Y5374D02*
Y5412D01*
X5318*
X5324Y5409*
X5327Y5406*
X5330Y5399*
Y5387*
X5327Y5381*
X5324Y5378*
X5318Y5374*
X5299*
X5365D02*
Y5412D01*
X5349Y5387*
X5374*
X5309Y4754D02*
Y4534D01*
X5389*
Y4754*
X5309*
Y5187D02*
Y4967D01*
X5389*
Y5187*
X5309*
Y5640D02*
Y5420D01*
X5389*
Y5640*
X5309*
X5311Y4666D02*
X5390D01*
X5311Y5099D02*
X5390D01*
X5311Y5552D02*
X5390D01*
X5320Y4323D02*
X5282D01*
Y4341*
X5285Y4348*
X5288Y4351*
X5295Y4354*
X5307*
X5313Y4351*
X5316Y4348*
X5320Y4341*
Y4323*
Y4373D02*
X5282Y4398D01*
Y4373*
X5320Y5740D02*
X5282D01*
Y5759*
X5285Y5765*
X5288Y5768*
X5295Y5771*
X5307*
X5313Y5768*
X5316Y5765*
X5320Y5759*
Y5740*
X5316Y5793D02*
X5320Y5799D01*
Y5806*
X5316Y5812*
X5310Y5815*
X5304Y5812*
X5301Y5806*
Y5799*
Y5806D02*
X5298Y5812D01*
X5291Y5815*
X5285Y5812*
X5282Y5806*
Y5799*
X5285Y5793*
D02*
D13*
X4819Y4598D02*
Y5063D01*
X4721*
Y4598*
X4819*
X0Y0D02*
M02*
